# xmcd CD database file
#
# Track frame offsets:
#	150
#	19007
#	38507
#	67852
#
# Disc length: 1140 seconds
#
# Revision: 0
# Processed by: cddbd v1.5.1PL0 Copyright (c) Steve Scherf et al.
# Submitted via: CDex 1.40Release
#
DISCID=22047204
DTITLE=倖田來未 - Hot Stuff feat.KM-MARKIT
DYEAR=2005
DGENRE=JPop
TTITLE0=Hot Stuff feat.KM-MARKIT
TTITLE1=Hot Stuff 〜確変無想転生 remix feat.UZI and KM-MARKIT〜
TTITLE2=Trust you 〜Dub's Trust me Remix〜
TTITLE3=Selfish 〜D.I's c6b MIX〜
EXTD=YEAR: 2005
EXTT0=
EXTT1=
EXTT2=
EXTT3=
PLAYORDER=
